<svg data-v-423bf9ae="" xmlns="http://www.w3.org/2000/svg" viewBox="0 0 217.0983905706191 60" class="font"><!----><!----><!----><g data-v-423bf9ae="" id="d604a5af-1e26-4a87-9871-3fbb33f02553" fill="black" transform="matrix(3.7359901615961397,0,0,3.7359901615961397,4.146948779489875,-9.975094970169437)"><path d="M10.10 5.25L10.10 5.25L10.10 5.25Q10.10 5.95 9.85 6.70L9.85 6.70L9.85 6.70Q9.60 7.44 9.07 8.16L9.07 8.16L9.07 8.16Q8.55 8.87 7.74 9.51L7.74 9.51L7.74 9.51Q6.92 10.15 5.80 10.63L5.80 10.63L5.80 10.63Q6.08 11.31 6.37 11.92L6.37 11.92L6.37 11.92Q6.67 12.54 6.96 13.08L6.96 13.08L6.96 13.08Q7.25 13.62 7.52 14.09L7.52 14.09L7.52 14.09Q7.78 14.55 7.99 14.91L7.99 14.91L7.99 14.91Q7.81 14.97 7.55 15.05L7.55 15.05L7.55 15.05Q7.30 15.13 7.03 15.22L7.03 15.22L7.03 15.22Q6.77 15.31 6.51 15.38L6.51 15.38L6.51 15.38Q6.25 15.46 6.06 15.51L6.06 15.51L6.06 15.51Q6.01 15.36 5.91 15.04L5.91 15.04L5.91 15.04Q5.80 14.72 5.67 14.27L5.67 14.27L5.67 14.27Q5.54 13.82 5.39 13.27L5.39 13.27L5.39 13.27Q5.24 12.71 5.10 12.09L5.10 12.09L5.10 12.09Q4.95 11.47 4.82 10.81L4.82 10.81L4.82 10.81Q4.68 10.15 4.58 9.50L4.58 9.50L4.58 9.50Q5.45 9.19 6.14 8.82L6.14 8.82L6.14 8.82Q6.82 8.44 7.34 8.02L7.34 8.02L7.34 8.02Q7.86 7.60 8.22 7.16L8.22 7.16L8.22 7.16Q8.59 6.71 8.81 6.28L8.81 6.28L8.81 6.28Q9.04 5.85 9.15 5.45L9.15 5.45L9.15 5.45Q9.26 5.05 9.26 4.72L9.26 4.72L9.26 4.72Q9.26 4.59 9.24 4.49L9.24 4.49L9.24 4.49Q9.21 4.39 9.15 4.33L9.15 4.33L9.15 4.33Q9.09 4.27 8.98 4.25L8.98 4.25L8.98 4.25Q8.87 4.23 8.68 4.26L8.68 4.26L8.68 4.26Q8.36 4.33 7.97 4.51L7.97 4.51L7.97 4.51Q7.59 4.70 7.16 4.97L7.16 4.97L7.16 4.97Q6.73 5.25 6.27 5.61L6.27 5.61L6.27 5.61Q5.81 5.97 5.34 6.39L5.34 6.39L5.34 6.39Q5.09 7.18 4.76 8.07L4.76 8.07L4.76 8.07Q4.43 8.96 4.05 9.83L4.05 9.83L4.05 9.83Q3.66 10.71 3.24 11.54L3.24 11.54L3.24 11.54Q2.82 12.37 2.39 13.05L2.39 13.05L2.39 13.05Q1.96 13.74 1.52 14.24L1.52 14.24L1.52 14.24Q1.09 14.75 0.68 14.96L0.68 14.96L0.68 14.96Q0.58 15.02 0.43 15.07L0.43 15.07L0.43 15.07Q0.29 15.11 0.07 15.13L0.07 15.13L0.07 15.13Q-0.01 15.14-0.13 15.07L-0.13 15.07L-0.13 15.07Q-0.24 14.99-0.36 14.88L-0.36 14.88L-0.36 14.88Q-0.47 14.76-0.59 14.62L-0.59 14.62L-0.59 14.62Q-0.70 14.47-0.80 14.34L-0.80 14.34L-0.80 14.34Q-0.90 14.21-0.97 14.11L-0.97 14.11L-0.97 14.11Q-1.03 14.01-1.05 13.97L-1.05 13.97L-1.05 13.97Q-1.11 13.87-1.11 13.73L-1.11 13.73L-1.11 13.73Q-1.11 13.59-1.08 13.45L-1.08 13.45L-1.08 13.45Q-0.94 13.00-0.70 12.45L-0.70 12.45L-0.70 12.45Q-0.45 11.90-0.12 11.30L-0.12 11.30L-0.12 11.30Q0.21 10.71 0.62 10.07L0.62 10.07L0.62 10.07Q1.03 9.44 1.49 8.81L1.49 8.81L1.49 8.81Q1.96 8.19 2.48 7.58L2.48 7.58L2.48 7.58Q2.99 6.97 3.54 6.42L3.54 6.42L3.54 6.42Q3.89 5.33 4.12 4.36L4.12 4.36L4.12 4.36Q4.34 3.39 4.38 2.67L4.38 2.67L4.38 2.67Q4.66 2.78 4.90 2.95L4.90 2.95L4.90 2.95Q5.15 3.12 5.35 3.31L5.35 3.31L5.35 3.31Q5.54 3.49 5.69 3.68L5.69 3.68L5.69 3.68Q5.84 3.86 5.93 4.01L5.93 4.01L5.93 4.01Q5.92 4.12 5.90 4.24L5.90 4.24L5.90 4.24Q5.88 4.36 5.84 4.50L5.84 4.50L5.84 4.50Q6.54 4.05 7.20 3.80L7.20 3.80L7.20 3.80Q7.87 3.55 8.50 3.55L8.50 3.55L8.50 3.55Q8.65 3.55 8.83 3.64L8.83 3.64L8.83 3.64Q9.00 3.73 9.18 3.87L9.18 3.87L9.18 3.87Q9.35 4.01 9.52 4.19L9.52 4.19L9.52 4.19Q9.68 4.37 9.81 4.56L9.81 4.56L9.81 4.56Q9.93 4.74 10.01 4.93L10.01 4.93L10.01 4.93Q10.09 5.11 10.10 5.25ZM0.03 13.73L0.03 13.73L0.03 13.73Q0.18 13.73 0.45 13.38L0.45 13.38L0.45 13.38Q0.72 13.04 1.05 12.43L1.05 12.43L1.05 12.43Q1.38 11.83 1.75 11.03L1.75 11.03L1.75 11.03Q2.12 10.23 2.48 9.34L2.48 9.34L2.48 9.34Q1.94 9.98 1.48 10.61L1.48 10.61L1.48 10.61Q1.02 11.24 0.68 11.80L0.68 11.80L0.68 11.80Q0.34 12.37 0.15 12.84L0.15 12.84L0.15 12.84Q-0.04 13.32-0.04 13.65L-0.04 13.65L-0.04 13.65Q-0.04 13.73 0.03 13.73ZM9.90 12.98L9.90 12.98L9.90 12.98Q9.90 13.19 10.05 13.19L10.05 13.19L10.05 13.19Q10.21 13.19 10.47 12.94L10.47 12.94L10.47 12.94Q10.73 12.69 11.01 12.30L11.01 12.30L11.01 12.30Q10.99 12.23 10.99 12.17L10.99 12.17L10.99 12.17Q10.99 12.11 10.99 12.07L10.99 12.07L10.99 12.07Q10.99 11.93 11.02 11.74L11.02 11.74L11.02 11.74Q11.05 11.55 11.17 11.31L11.17 11.31L11.17 11.31Q11.25 11.13 11.37 10.95L11.37 10.95L11.37 10.95Q11.46 10.79 11.60 10.61L11.60 10.61L11.60 10.61Q11.74 10.43 11.90 10.27L11.90 10.27L11.94 10.23L11.94 10.23Q12.01 10.32 12.12 10.46L12.12 10.46L12.12 10.46Q12.24 10.60 12.35 10.74L12.35 10.74L12.35 10.74Q12.46 10.89 12.55 11.01L12.55 11.01L12.55 11.01Q12.63 11.14 12.65 11.18L12.65 11.18L12.65 11.18Q12.65 11.48 12.55 11.77L12.55 11.77L12.55 11.77Q12.44 12.07 12.26 12.35L12.26 12.35L12.26 12.35Q12.67 12.33 13.03 12.14L13.03 12.14L13.03 12.14Q13.38 11.96 13.76 11.55L13.76 11.55L13.76 11.55Q13.82 11.61 13.92 11.72L13.92 11.72L13.92 11.72Q14.02 11.83 14.08 11.90L14.08 11.90L14.08 11.90Q13.79 12.20 13.52 12.40L13.52 12.40L13.52 12.40Q13.24 12.60 12.96 12.71L12.96 12.71L12.96 12.71Q12.69 12.83 12.40 12.88L12.40 12.88L12.40 12.88Q12.11 12.93 11.81 12.93L11.81 12.93L11.81 12.93Q11.58 13.18 11.31 13.38L11.31 13.38L11.31 13.38Q11.05 13.59 10.77 13.74L10.77 13.74L10.77 13.74Q10.49 13.89 10.22 13.97L10.22 13.97L10.22 13.97Q9.95 14.05 9.70 14.05L9.70 14.05L9.70 14.05Q9.50 14.05 9.28 13.93L9.28 13.93L9.28 13.93Q9.06 13.81 8.88 13.63L8.88 13.63L8.88 13.63Q8.70 13.45 8.59 13.24L8.59 13.24L8.59 13.24Q8.47 13.04 8.47 12.88L8.47 12.88L8.47 12.88Q8.47 12.36 8.61 11.85L8.61 11.85L8.61 11.85Q8.75 11.33 9.05 10.89L9.05 10.89L9.05 10.89Q9.34 10.44 9.81 10.10L9.81 10.10L9.81 10.10Q10.27 9.75 10.90 9.58L10.90 9.58L10.90 9.58Q10.92 9.56 10.98 9.56L10.98 9.56L10.98 9.56Q11.03 9.55 11.06 9.55L11.06 9.55L11.06 9.55Q11.16 9.55 11.26 9.62L11.26 9.62L11.26 9.62Q11.37 9.69 11.46 9.78L11.46 9.78L11.46 9.78Q11.55 9.87 11.61 9.96L11.61 9.96L11.61 9.96Q11.68 10.04 11.68 10.07L11.68 10.07L11.68 10.07Q11.66 10.10 11.57 10.15L11.57 10.15L11.57 10.15Q11.48 10.21 11.33 10.33L11.33 10.33L11.33 10.33Q11.18 10.45 10.98 10.68L10.98 10.68L10.98 10.68Q10.77 10.91 10.53 11.29L10.53 11.29L10.53 11.29Q10.16 11.84 10.03 12.29L10.03 12.29L10.03 12.29Q9.90 12.74 9.90 12.98ZM19.18 11.63L19.49 11.98L19.49 11.98Q18.87 12.54 18.22 13.03L18.22 13.03L18.22 13.03Q17.58 13.52 16.93 13.98L16.93 13.98L16.93 13.98Q16.83 14.27 16.71 14.59L16.71 14.59L16.71 14.59Q16.58 14.91 16.41 15.32L16.41 15.32L16.41 15.32Q16.21 15.77 15.96 16.20L15.96 16.20L15.96 16.20Q15.70 16.63 15.42 17.01L15.42 17.01L15.42 17.01Q15.13 17.39 14.83 17.71L14.83 17.71L14.83 17.71Q14.53 18.02 14.24 18.25L14.24 18.25L14.24 18.25Q13.95 18.48 13.68 18.60L13.68 18.60L13.68 18.60Q13.41 18.73 13.19 18.73L13.19 18.73L13.19 18.73Q13.08 18.73 12.92 18.65L12.92 18.65L12.92 18.65Q12.76 18.57 12.62 18.44L12.62 18.44L12.62 18.44Q12.48 18.31 12.38 18.17L12.38 18.17L12.38 18.17Q12.28 18.03 12.28 17.90L12.28 17.90L12.28 17.90Q12.28 17.47 12.51 17.06L12.51 17.06L12.51 17.06Q12.74 16.65 13.15 16.23L13.15 16.23L13.15 16.23Q13.56 15.81 14.11 15.38L14.11 15.38L14.11 15.38Q14.66 14.96 15.29 14.51L15.29 14.51L15.29 14.51Q15.49 13.98 15.68 13.41L15.68 13.41L15.68 13.41Q15.87 12.84 16.04 12.28L16.04 12.28L16.04 12.28Q15.75 12.65 15.48 12.93L15.48 12.93L15.48 12.93Q15.20 13.21 14.97 13.41L14.97 13.41L14.97 13.41Q14.74 13.60 14.57 13.72L14.57 13.72L14.57 13.72Q14.40 13.84 14.31 13.90L14.31 13.90L14.31 13.90Q14.25 13.94 14.18 13.96L14.18 13.96L14.18 13.96Q14.10 13.97 14.04 13.97L14.04 13.97L14.04 13.97Q13.91 13.97 13.75 13.89L13.75 13.89L13.75 13.89Q13.60 13.82 13.46 13.70L13.46 13.70L13.46 13.70Q13.33 13.58 13.24 13.43L13.24 13.43L13.24 13.43Q13.15 13.29 13.15 13.16L13.15 13.16L13.15 13.16Q13.15 13.01 13.24 12.68L13.24 12.68L13.24 12.68Q13.34 12.35 13.51 11.87L13.51 11.87L13.51 11.87Q13.68 11.40 13.90 10.81L13.90 10.81L13.90 10.81Q14.13 10.23 14.39 9.56L14.39 9.56L14.39 9.56Q14.40 9.53 14.41 9.53L14.41 9.53L14.41 9.53Q14.42 9.54 14.45 9.54L14.45 9.54L14.45 9.54Q14.58 9.56 14.81 9.64L14.81 9.64L14.81 9.64Q15.03 9.73 15.25 9.83L15.25 9.83L15.25 9.83Q15.46 9.93 15.62 10.02L15.62 10.02L15.62 10.02Q15.78 10.12 15.78 10.15L15.78 10.15L15.78 10.15Q15.76 10.20 15.67 10.38L15.67 10.38L15.67 10.38Q15.59 10.55 15.47 10.80L15.47 10.80L15.47 10.80Q15.36 11.05 15.23 11.34L15.23 11.34L15.23 11.34Q15.11 11.63 15.00 11.90L15.00 11.90L15.00 11.90Q14.90 12.17 14.83 12.38L14.83 12.38L14.83 12.38Q14.76 12.60 14.76 12.70L14.76 12.70L14.76 12.70Q14.76 12.73 14.79 12.73L14.79 12.73L14.79 12.73Q14.83 12.73 14.99 12.61L14.99 12.61L14.99 12.61Q15.16 12.48 15.39 12.22L15.39 12.22L15.39 12.22Q15.63 11.95 15.93 11.54L15.93 11.54L15.93 11.54Q16.24 11.12 16.57 10.54L16.57 10.54L16.57 10.54Q16.71 10.09 16.80 9.82L16.80 9.82L16.80 9.82Q16.88 9.55 16.91 9.55L16.91 9.55L16.91 9.55Q16.95 9.55 17.12 9.65L17.12 9.65L17.12 9.65Q17.29 9.75 17.49 9.90L17.49 9.90L17.49 9.90Q17.68 10.04 17.83 10.18L17.83 10.18L17.83 10.18Q17.98 10.32 17.98 10.39L17.98 10.39L17.98 10.39Q17.98 10.42 17.97 10.45L17.97 10.45L17.97 10.45Q17.96 10.48 17.95 10.51L17.95 10.51L17.95 10.51Q17.79 10.99 17.68 11.38L17.68 11.38L17.68 11.38Q17.56 11.76 17.47 12.09L17.47 12.09L17.47 12.09Q17.38 12.41 17.31 12.68L17.31 12.68L17.31 12.68Q17.23 12.95 17.17 13.20L17.17 13.20L17.17 13.20Q17.68 12.83 18.18 12.44L18.18 12.44L18.18 12.44Q18.69 12.06 19.18 11.63L19.18 11.63ZM13.15 17.98L13.15 17.98L13.15 17.98Q13.27 17.98 13.49 17.74L13.49 17.74L13.49 17.74Q13.71 17.51 13.96 17.14L13.96 17.14L13.96 17.14Q14.21 16.77 14.47 16.31L14.47 16.31L14.47 16.31Q14.72 15.86 14.92 15.42L14.92 15.42L14.92 15.42Q14.66 15.64 14.34 15.90L14.34 15.90L14.34 15.90Q14.02 16.16 13.74 16.47L13.74 16.47L13.74 16.47Q13.46 16.78 13.27 17.13L13.27 17.13L13.27 17.13Q13.08 17.48 13.08 17.88L13.08 17.88L13.08 17.88Q13.08 17.98 13.15 17.98ZM22.98 13.08L22.98 13.08L22.98 13.08Q22.98 13.12 23.02 13.12L23.02 13.12L23.02 13.12Q23.08 13.12 23.22 13.03L23.22 13.03L23.22 13.03Q23.37 12.94 23.55 12.80L23.55 12.80L23.55 12.80Q23.73 12.67 23.94 12.50L23.94 12.50L23.94 12.50Q24.15 12.33 24.34 12.16L24.34 12.16L24.34 12.16Q24.53 12.00 24.69 11.86L24.69 11.86L24.69 11.86Q24.84 11.72 24.92 11.65L24.92 11.65L24.92 11.65Q24.99 11.71 25.08 11.81L25.08 11.81L25.08 11.81Q25.17 11.92 25.25 12.00L25.25 12.00L25.25 12.00Q25.08 12.15 24.85 12.36L24.85 12.36L24.85 12.36Q24.62 12.58 24.36 12.81L24.36 12.81L24.36 12.81Q24.10 13.04 23.82 13.27L23.82 13.27L23.82 13.27Q23.54 13.50 23.27 13.68L23.27 13.68L23.27 13.68Q23.00 13.86 22.76 13.97L22.76 13.97L22.76 13.97Q22.52 14.08 22.35 14.08L22.35 14.08L22.35 14.08Q22.22 14.08 22.08 14.03L22.08 14.03L22.08 14.03Q21.93 13.99 21.81 13.90L21.81 13.90L21.81 13.90Q21.68 13.82 21.60 13.70L21.60 13.70L21.60 13.70Q21.52 13.58 21.52 13.44L21.52 13.44L21.52 13.44Q21.52 13.38 21.52 13.31L21.52 13.31L21.52 13.31Q21.51 13.23 21.53 13.10L21.53 13.10L21.53 13.10Q21.54 12.97 21.58 12.79L21.58 12.79L21.58 12.79Q21.62 12.61 21.70 12.35L21.70 12.35L21.70 12.35Q21.48 12.58 21.17 12.84L21.17 12.84L21.17 12.84Q20.87 13.10 20.54 13.34L20.54 13.34L20.54 13.34Q20.20 13.57 19.86 13.76L19.86 13.76L19.86 13.76Q19.52 13.95 19.24 14.04L19.24 14.04L19.24 14.04Q19.20 14.05 19.18 14.05L19.18 14.05L19.18 14.05Q19.16 14.05 19.14 14.05L19.14 14.05L19.14 14.05Q19.07 14.05 18.96 13.99L18.96 13.99L18.96 13.99Q18.85 13.92 18.74 13.81L18.74 13.81L18.74 13.81Q18.63 13.69 18.55 13.55L18.55 13.55L18.55 13.55Q18.47 13.41 18.47 13.26L18.47 13.26L18.47 13.26Q18.47 13.22 18.51 12.99L18.51 12.99L18.51 12.99Q18.55 12.76 18.71 12.40L18.71 12.40L18.71 12.40Q18.86 12.04 19.16 11.59L19.16 11.59L19.16 11.59Q19.46 11.14 19.98 10.67L19.98 10.67L19.98 10.67Q20.25 10.43 20.56 10.22L20.56 10.22L20.56 10.22Q20.82 10.04 21.15 9.86L21.15 9.86L21.15 9.86Q21.49 9.67 21.85 9.56L21.85 9.56L21.85 9.56Q21.87 9.56 21.88 9.56L21.88 9.56L21.88 9.56Q21.89 9.55 21.91 9.56L21.91 9.56L21.91 9.56Q21.99 9.59 22.10 9.65L22.10 9.65L22.10 9.65Q22.22 9.71 22.33 9.77L22.33 9.77L22.33 9.77Q22.44 9.84 22.53 9.90L22.53 9.90L22.53 9.90Q22.61 9.97 22.64 10.01L22.64 10.01L22.64 10.01Q22.65 10.02 22.64 10.03L22.64 10.03L22.63 10.04L22.63 10.04Q22.32 10.21 22.05 10.41L22.05 10.41L22.05 10.41Q21.77 10.61 21.56 10.79L21.56 10.79L21.56 10.79Q21.31 11.00 21.10 11.20L21.10 11.20L21.10 11.20Q20.60 11.70 20.41 12.06L20.41 12.06L20.41 12.06Q20.22 12.41 20.22 12.57L20.22 12.57L20.22 12.57Q20.22 12.69 20.32 12.69L20.32 12.69L20.32 12.69Q20.41 12.69 20.56 12.61L20.56 12.61L20.56 12.61Q20.71 12.53 20.89 12.40L20.89 12.40L20.89 12.40Q21.08 12.26 21.30 12.08L21.30 12.08L21.30 12.08Q21.52 11.90 21.76 11.70L21.76 11.70L21.76 11.70Q21.97 11.53 22.17 11.33L22.17 11.33L22.17 11.33Q22.34 11.17 22.52 10.96L22.52 10.96L22.52 10.96Q22.71 10.75 22.84 10.53L22.84 10.53L22.84 10.53Q22.84 10.52 22.85 10.51L22.85 10.51L22.85 10.51Q22.85 10.51 22.87 10.51L22.87 10.51L22.87 10.51Q22.94 10.57 23.04 10.69L23.04 10.69L23.04 10.69Q23.13 10.82 23.21 10.97L23.21 10.97L23.21 10.97Q23.30 11.12 23.35 11.26L23.35 11.26L23.35 11.26Q23.41 11.40 23.41 11.48L23.41 11.48L23.41 11.48Q23.26 11.80 23.17 12.06L23.17 12.06L23.17 12.06Q23.08 12.33 23.04 12.52L23.04 12.52L23.04 12.52Q23.00 12.72 22.99 12.86L22.99 12.86L22.99 12.86Q22.98 13.00 22.98 13.08ZM26.35 13.20L26.35 13.20L26.35 13.20Q26.46 13.20 26.65 13.10L26.65 13.10L26.65 13.10Q26.84 13.01 27.06 12.86L27.06 12.86L27.06 12.86Q27.29 12.71 27.54 12.54L27.54 12.54L27.54 12.54Q27.78 12.36 28.00 12.19L28.00 12.19L28.00 12.19Q28.21 12.02 28.38 11.87L28.38 11.87L28.38 11.87Q28.55 11.73 28.64 11.66L28.64 11.66L28.64 11.66Q28.70 11.72 28.78 11.82L28.78 11.82L28.78 11.82Q28.87 11.92 28.94 12.00L28.94 12.00L28.94 12.00Q28.79 12.15 28.57 12.36L28.57 12.36L28.57 12.36Q28.34 12.58 28.08 12.80L28.08 12.80L28.08 12.80Q27.82 13.03 27.53 13.25L27.53 13.25L27.53 13.25Q27.25 13.48 26.98 13.66L26.98 13.66L26.98 13.66Q26.71 13.84 26.48 13.95L26.48 13.95L26.48 13.95Q26.24 14.05 26.09 14.05L26.09 14.05L26.09 14.05Q25.87 14.05 25.64 13.90L25.64 13.90L25.64 13.90Q25.40 13.75 25.20 13.55L25.20 13.55L25.20 13.55Q24.99 13.35 24.85 13.15L24.85 13.15L24.85 13.15Q24.71 12.94 24.68 12.84L24.68 12.84L24.68 12.84Q24.67 12.80 24.67 12.74L24.67 12.74L24.67 12.74Q24.67 12.68 24.67 12.61L24.67 12.61L24.67 12.61Q24.67 12.27 24.76 11.75L24.76 11.75L24.76 11.75Q24.84 11.22 24.99 10.64L24.99 10.64L24.99 10.64Q25.13 10.06 25.32 9.48L25.32 9.48L25.32 9.48Q25.50 8.90 25.71 8.46L25.71 8.46L25.71 8.46Q26.13 7.55 26.57 6.84L26.57 6.84L26.57 6.84Q27.01 6.14 27.43 5.62L27.43 5.62L27.43 5.62Q27.86 5.09 28.25 4.74L28.25 4.74L28.25 4.74Q28.64 4.38 28.95 4.16L28.95 4.16L28.95 4.16Q29.26 3.94 29.47 3.85L29.47 3.85L29.47 3.85Q29.69 3.75 29.77 3.75L29.77 3.75L29.77 3.75Q29.90 3.80 30.03 3.89L30.03 3.89L30.03 3.89Q30.17 3.99 30.28 4.09L30.28 4.09L30.28 4.09Q30.40 4.19 30.49 4.29L30.49 4.29L30.49 4.29Q30.58 4.39 30.62 4.44L30.62 4.44L30.62 4.44Q30.67 4.49 30.69 4.54L30.69 4.54L30.69 4.54Q30.71 4.59 30.71 4.68L30.71 4.68L30.71 4.68Q30.71 4.84 30.63 5.13L30.63 5.13L30.63 5.13Q30.54 5.41 30.32 5.85L30.32 5.85L30.32 5.85Q30.09 6.30 29.69 6.91L29.69 6.91L29.69 6.91Q29.29 7.53 28.65 8.35L28.65 8.35L28.65 8.35Q28.35 8.73 28.01 9.13L28.01 9.13L28.01 9.13Q27.73 9.47 27.35 9.87L27.35 9.87L27.35 9.87Q26.97 10.27 26.58 10.64L26.58 10.64L26.58 10.64Q26.38 11.40 26.30 11.97L26.30 11.97L26.30 11.97Q26.22 12.54 26.22 12.87L26.22 12.87L26.22 12.87Q26.22 13.08 26.26 13.14L26.26 13.14L26.26 13.14Q26.29 13.20 26.35 13.20ZM27.45 8.19L27.45 8.19L27.45 8.19Q27.33 8.45 27.23 8.70L27.23 8.70L27.23 8.70Q27.13 8.94 27.04 9.18L27.04 9.18L27.04 9.18Q27.25 8.94 27.43 8.72L27.43 8.72L27.43 8.72Q27.60 8.50 27.73 8.35L27.73 8.35L27.73 8.35Q27.87 8.16 27.99 8.00L27.99 8.00L27.99 8.00Q28.46 7.33 28.81 6.77L28.81 6.77L28.81 6.77Q29.16 6.21 29.39 5.78L29.39 5.78L29.39 5.78Q29.61 5.35 29.72 5.07L29.72 5.07L29.72 5.07Q29.83 4.79 29.83 4.66L29.83 4.66L29.83 4.66Q29.83 4.63 29.82 4.61L29.82 4.61L29.82 4.61Q29.82 4.59 29.78 4.59L29.78 4.59L29.78 4.59Q29.72 4.59 29.50 4.80L29.50 4.80L29.50 4.80Q29.29 5.00 28.97 5.43L28.97 5.43L28.97 5.43Q28.65 5.87 28.26 6.55L28.26 6.55L28.26 6.55Q27.86 7.23 27.45 8.19ZM33.51 4.30L33.51 4.30L33.51 4.30Q33.20 5.11 32.90 5.86L32.90 5.86L32.90 5.86Q32.59 6.61 32.30 7.32L32.30 7.32L32.30 7.32Q32.00 8.03 31.70 8.72L31.70 8.72L31.70 8.72Q31.40 9.40 31.09 10.06L31.09 10.06L31.09 10.06Q31.60 9.99 32.13 9.91L32.13 9.91L32.13 9.91Q32.66 9.82 33.12 9.75L33.12 9.75L33.12 9.75Q33.57 9.69 33.90 9.64L33.90 9.64L33.90 9.64Q34.23 9.59 34.33 9.57L34.33 9.57L34.33 9.57Q34.91 8.18 35.45 6.74L35.45 6.74L35.45 6.74Q35.98 5.31 36.52 3.82L36.52 3.82L36.52 3.82Q36.72 4.02 36.95 4.25L36.95 4.25L36.95 4.25Q37.18 4.48 37.39 4.70L37.39 4.70L37.39 4.70Q37.60 4.91 37.76 5.07L37.76 5.07L37.76 5.07Q37.92 5.23 37.97 5.29L37.97 5.29L37.97 5.29Q37.50 6.31 37.04 7.28L37.04 7.28L37.04 7.28Q36.58 8.25 36.13 9.18L36.13 9.18L36.13 9.18Q36.74 9.03 37.10 8.90L37.10 8.90L37.10 8.90Q37.46 8.78 37.65 8.71L37.65 8.71L37.65 8.71Q37.84 8.63 37.88 8.62L37.88 8.62L37.88 8.62Q37.93 8.61 37.92 8.67L37.92 8.67L37.92 8.67Q37.90 8.72 37.83 8.86L37.83 8.86L37.83 8.86Q37.76 9.00 37.66 9.18L37.66 9.18L37.66 9.18Q37.56 9.36 37.44 9.55L37.44 9.55L37.44 9.55Q37.32 9.75 37.20 9.91L37.20 9.91L37.20 9.91Q37.08 10.08 36.97 10.19L36.97 10.19L36.97 10.19Q36.86 10.29 36.78 10.30L36.78 10.30L36.78 10.30Q36.64 10.33 36.45 10.36L36.45 10.36L36.45 10.36Q36.29 10.38 36.04 10.42L36.04 10.42L36.04 10.42Q35.80 10.46 35.49 10.51L35.49 10.51L35.49 10.51Q34.77 11.96 34.15 13.14L34.15 13.14L34.15 13.14Q33.52 14.31 33.02 15.12L33.02 15.12L33.02 15.12Q32.76 14.92 32.54 14.71L32.54 14.71L32.54 14.71Q32.31 14.51 32.09 14.44L32.09 14.44L32.09 14.44Q31.96 13.63 31.61 12.68L31.61 12.68L31.61 12.68Q31.25 11.74 30.74 10.80L30.74 10.80L30.74 10.80Q30.26 11.83 29.75 12.83L29.75 12.83L29.75 12.83Q29.24 13.84 28.68 14.91L28.68 14.91L28.68 14.91Q28.38 14.67 28.11 14.49L28.11 14.49L28.11 14.49Q27.84 14.31 27.66 14.17L27.66 14.17L27.66 14.17Q27.96 13.58 28.31 12.81L28.31 12.81L28.31 12.81Q28.67 12.05 29.05 11.16L29.05 11.16L29.05 11.16Q29.43 10.27 29.82 9.27L29.82 9.27L29.82 9.27Q30.21 8.28 30.59 7.22L30.59 7.22L30.59 7.22Q30.97 6.16 31.34 5.06L31.34 5.06L31.34 5.06Q31.70 3.96 32.01 2.87L32.01 2.87L32.01 2.87Q32.21 3.06 32.42 3.25L32.42 3.25L32.42 3.25Q32.63 3.44 32.83 3.62L32.83 3.62L32.83 3.62Q33.03 3.80 33.21 3.98L33.21 3.98L33.21 3.98Q33.38 4.15 33.51 4.30ZM32.66 13.32L32.66 13.32L32.66 13.32Q33.27 12.05 33.84 10.73L33.84 10.73L33.84 10.73Q32.84 10.86 31.51 11.00L31.51 11.00L31.51 11.00Q31.70 11.29 31.87 11.60L31.87 11.60L31.87 11.60Q32.03 11.92 32.18 12.22L32.18 12.22L32.18 12.22Q32.33 12.53 32.45 12.81L32.45 12.81L32.45 12.81Q32.57 13.10 32.66 13.32ZM38.47 12.98L38.47 12.98L38.47 12.98Q38.47 13.19 38.62 13.19L38.62 13.19L38.62 13.19Q38.77 13.19 39.03 12.94L39.03 12.94L39.03 12.94Q39.29 12.69 39.57 12.30L39.57 12.30L39.57 12.30Q39.56 12.23 39.56 12.17L39.56 12.17L39.56 12.17Q39.55 12.11 39.55 12.07L39.55 12.07L39.55 12.07Q39.55 11.93 39.58 11.74L39.58 11.74L39.58 11.74Q39.61 11.55 39.74 11.31L39.74 11.31L39.74 11.31Q39.82 11.13 39.94 10.95L39.94 10.95L39.94 10.95Q40.03 10.79 40.17 10.61L40.17 10.61L40.17 10.61Q40.30 10.43 40.47 10.27L40.47 10.27L40.51 10.23L40.51 10.23Q40.58 10.32 40.69 10.46L40.69 10.46L40.69 10.46Q40.80 10.60 40.92 10.74L40.92 10.74L40.92 10.74Q41.03 10.89 41.11 11.01L41.11 11.01L41.11 11.01Q41.20 11.14 41.22 11.18L41.22 11.18L41.22 11.18Q41.22 11.48 41.11 11.77L41.11 11.77L41.11 11.77Q41.01 12.07 40.83 12.35L40.83 12.35L40.83 12.35Q41.24 12.33 41.59 12.14L41.59 12.14L41.59 12.14Q41.95 11.96 42.33 11.55L42.33 11.55L42.33 11.55Q42.39 11.61 42.49 11.72L42.49 11.72L42.49 11.72Q42.59 11.83 42.65 11.90L42.65 11.90L42.65 11.90Q42.36 12.20 42.09 12.40L42.09 12.40L42.09 12.40Q41.81 12.60 41.53 12.71L41.53 12.71L41.53 12.71Q41.25 12.83 40.97 12.88L40.97 12.88L40.97 12.88Q40.68 12.93 40.38 12.93L40.38 12.93L40.38 12.93Q40.15 13.18 39.88 13.38L39.88 13.38L39.88 13.38Q39.61 13.59 39.34 13.74L39.34 13.74L39.34 13.74Q39.06 13.89 38.79 13.97L38.79 13.97L38.79 13.97Q38.51 14.05 38.27 14.05L38.27 14.05L38.27 14.05Q38.06 14.05 37.84 13.93L37.84 13.93L37.84 13.93Q37.63 13.81 37.45 13.63L37.45 13.63L37.45 13.63Q37.27 13.45 37.15 13.24L37.15 13.24L37.15 13.24Q37.04 13.04 37.04 12.88L37.04 12.88L37.04 12.88Q37.04 12.36 37.18 11.85L37.18 11.85L37.18 11.85Q37.32 11.33 37.61 10.89L37.61 10.89L37.61 10.89Q37.91 10.44 38.37 10.10L38.37 10.10L38.37 10.10Q38.83 9.75 39.47 9.58L39.47 9.58L39.47 9.58Q39.49 9.56 39.54 9.56L39.54 9.56L39.54 9.56Q39.59 9.55 39.63 9.55L39.63 9.55L39.63 9.55Q39.72 9.55 39.83 9.62L39.83 9.62L39.83 9.62Q39.94 9.69 40.03 9.78L40.03 9.78L40.03 9.78Q40.12 9.87 40.18 9.96L40.18 9.96L40.18 9.96Q40.24 10.04 40.24 10.07L40.24 10.07L40.24 10.07Q40.23 10.10 40.14 10.15L40.14 10.15L40.14 10.15Q40.05 10.21 39.90 10.33L39.90 10.33L39.90 10.33Q39.75 10.45 39.55 10.68L39.55 10.68L39.55 10.68Q39.34 10.91 39.09 11.29L39.09 11.29L39.09 11.29Q38.73 11.84 38.60 12.29L38.60 12.29L38.60 12.29Q38.47 12.74 38.47 12.98ZM45.80 13.08L45.80 13.08L45.80 13.08Q45.80 13.12 45.84 13.12L45.84 13.12L45.84 13.12Q45.92 13.12 46.07 13.03L46.07 13.03L46.07 13.03Q46.22 12.94 46.42 12.80L46.42 12.80L46.42 12.80Q46.62 12.67 46.84 12.50L46.84 12.50L46.84 12.50Q47.06 12.33 47.26 12.16L47.26 12.16L47.26 12.16Q47.46 12.00 47.62 11.87L47.62 11.87L47.62 11.87Q47.78 11.73 47.86 11.66L47.86 11.66L47.86 11.66Q47.92 11.72 48.01 11.82L48.01 11.82L48.01 11.82Q48.09 11.92 48.17 12.00L48.17 12.00L48.17 12.00Q48.02 12.15 47.79 12.36L47.79 12.36L47.79 12.36Q47.56 12.57 47.29 12.80L47.29 12.80L47.29 12.80Q47.02 13.03 46.73 13.25L46.73 13.25L46.73 13.25Q46.44 13.47 46.16 13.65L46.16 13.65L46.16 13.65Q45.89 13.82 45.65 13.93L45.65 13.93L45.65 13.93Q45.41 14.04 45.25 14.04L45.25 14.04L45.25 14.04Q45.14 14.04 44.99 13.97L44.99 13.97L44.99 13.97Q44.85 13.90 44.72 13.78L44.72 13.78L44.72 13.78Q44.60 13.67 44.51 13.54L44.51 13.54L44.51 13.54Q44.43 13.40 44.43 13.28L44.43 13.28L44.43 13.28Q44.43 13.17 44.51 12.86L44.51 12.86L44.51 12.86Q44.59 12.55 44.71 12.14L44.71 12.14L44.71 12.14Q44.40 12.56 44.11 12.88L44.11 12.88L44.11 12.88Q43.81 13.19 43.57 13.42L43.57 13.42L43.57 13.42Q43.32 13.64 43.13 13.78L43.13 13.78L43.13 13.78Q42.95 13.92 42.86 13.99L42.86 13.99L42.86 13.99Q42.81 14.02 42.73 14.04L42.73 14.04L42.73 14.04Q42.66 14.05 42.59 14.05L42.59 14.05L42.59 14.05Q42.46 14.05 42.31 13.98L42.31 13.98L42.31 13.98Q42.15 13.90 42.02 13.78L42.02 13.78L42.02 13.78Q41.88 13.67 41.79 13.52L41.79 13.52L41.79 13.52Q41.70 13.38 41.70 13.25L41.70 13.25L41.70 13.25Q41.70 13.10 41.80 12.75L41.80 12.75L41.80 12.75Q41.90 12.40 42.06 11.92L42.06 11.92L42.06 11.92Q42.23 11.43 42.46 10.83L42.46 10.83L42.46 10.83Q42.68 10.23 42.94 9.56L42.94 9.56L42.94 9.56Q42.96 9.53 42.97 9.53L42.97 9.53L42.97 9.53Q42.98 9.54 43.00 9.54L43.00 9.54L43.00 9.54Q43.13 9.56 43.36 9.64L43.36 9.64L43.36 9.64Q43.59 9.73 43.80 9.83L43.80 9.83L43.80 9.83Q44.02 9.93 44.17 10.02L44.17 10.02L44.17 10.02Q44.33 10.12 44.33 10.15L44.33 10.15L44.33 10.15Q44.31 10.20 44.23 10.38L44.23 10.38L44.23 10.38Q44.14 10.55 44.03 10.80L44.03 10.80L44.03 10.80Q43.91 11.05 43.79 11.34L43.79 11.34L43.79 11.34Q43.66 11.63 43.56 11.90L43.56 11.90L43.56 11.90Q43.45 12.17 43.38 12.38L43.38 12.38L43.38 12.38Q43.31 12.60 43.31 12.70L43.31 12.70L43.31 12.70Q43.31 12.73 43.34 12.73L43.34 12.73L43.34 12.73Q43.39 12.73 43.58 12.58L43.58 12.58L43.58 12.58Q43.76 12.43 44.03 12.12L44.03 12.12L44.03 12.12Q44.30 11.81 44.65 11.31L44.65 11.31L44.65 11.31Q44.99 10.81 45.36 10.12L45.36 10.12L45.55 9.58L45.55 9.58Q45.57 9.52 45.64 9.52L45.64 9.52L45.64 9.52Q45.68 9.52 45.85 9.61L45.85 9.61L45.85 9.61Q46.01 9.71 46.19 9.83L46.19 9.83L46.19 9.83Q46.37 9.95 46.51 10.07L46.51 10.07L46.51 10.07Q46.66 10.19 46.67 10.23L46.67 10.23L46.67 10.23Q46.67 10.25 46.66 10.31L46.66 10.31L46.66 10.31Q46.66 10.36 46.64 10.39L46.64 10.39L46.64 10.39Q46.57 10.58 46.48 10.82L46.48 10.82L46.48 10.82Q46.40 11.07 46.30 11.34L46.30 11.34L46.30 11.34Q46.21 11.61 46.12 11.89L46.12 11.89L46.12 11.89Q46.03 12.16 45.96 12.40L45.96 12.40L45.96 12.40Q45.89 12.63 45.85 12.81L45.85 12.81L45.85 12.81Q45.80 13.00 45.80 13.08ZM47.71 11.79L47.71 11.79L47.71 11.79Q47.87 11.64 48.07 11.45L48.07 11.45L48.07 11.45Q48.28 11.26 48.48 11.03L48.48 11.03L48.48 11.03Q48.68 10.81 48.85 10.55L48.85 10.55L48.85 10.55Q49.03 10.29 49.13 9.99L49.13 9.99L49.13 9.99Q49.16 9.83 49.22 9.66L49.22 9.66L49.22 9.66Q49.27 9.48 49.35 9.34L49.35 9.34L49.35 9.34Q49.42 9.19 49.49 9.10L49.49 9.10L49.49 9.10Q49.55 9.00 49.61 9.00L49.61 9.00L49.61 9.00Q49.69 9.05 49.85 9.18L49.85 9.18L49.85 9.18Q50.02 9.32 50.18 9.47L50.18 9.47L50.18 9.47Q50.35 9.62 50.47 9.74L50.47 9.74L50.47 9.74Q50.60 9.87 50.60 9.90L50.60 9.90L50.60 9.90Q50.52 10.21 50.52 10.47L50.52 10.47L50.52 10.47Q50.52 10.72 50.56 10.96L50.56 10.96L50.56 10.96Q50.60 11.21 50.64 11.49L50.64 11.49L50.64 11.49Q50.69 11.76 50.69 12.13L50.69 12.13L50.69 12.13Q50.69 12.35 50.62 12.63L50.62 12.63L50.62 12.63Q50.54 12.91 50.37 13.14L50.37 13.14L50.37 13.14Q50.72 12.93 51.06 12.68L51.06 12.68L51.06 12.68Q51.40 12.42 51.67 12.20L51.67 12.20L51.67 12.20Q51.98 11.93 52.27 11.66L52.27 11.66L52.58 12.00L52.58 12.00Q52.35 12.21 52.09 12.45L52.09 12.45L52.09 12.45Q51.82 12.69 51.54 12.92L51.54 12.92L51.54 12.92Q51.26 13.15 50.96 13.36L50.96 13.36L50.96 13.36Q50.67 13.58 50.38 13.74L50.38 13.74L50.38 13.74Q50.09 13.90 49.83 14L49.83 14L49.83 14Q49.56 14.10 49.33 14.10L49.33 14.10L49.33 14.10Q49.13 14.10 48.89 14L48.89 14L48.89 14Q48.65 13.90 48.44 13.77L48.44 13.77L48.44 13.77Q48.23 13.63 48.07 13.48L48.07 13.48L48.07 13.48Q47.91 13.33 47.89 13.23L47.89 13.23L47.89 13.23Q47.89 13.21 47.91 13.17L47.91 13.17L47.91 13.17Q47.94 13.13 47.98 13.08L47.98 13.08L47.98 13.08Q48.02 13.03 48.05 12.99L48.05 12.99L48.05 12.99Q48.09 12.95 48.11 12.95L48.11 12.95L48.11 12.95Q48.15 12.95 48.28 13.02L48.28 13.02L48.28 13.02Q48.40 13.08 48.69 13.08L48.69 13.08L48.69 13.08Q48.84 13.08 48.96 13.00L48.96 13.00L48.96 13.00Q49.07 12.91 49.14 12.78L49.14 12.78L49.14 12.78Q49.22 12.64 49.25 12.46L49.25 12.46L49.25 12.46Q49.29 12.28 49.29 12.09L49.29 12.09L49.29 12.09Q49.29 11.80 49.26 11.53L49.26 11.53L49.26 11.53Q49.23 11.26 49.20 11.01L49.20 11.01L49.20 11.01Q49.08 11.14 48.93 11.29L48.93 11.29L48.93 11.29Q48.78 11.44 48.63 11.59L48.63 11.59L48.63 11.59Q48.47 11.74 48.32 11.88L48.32 11.88L48.32 11.88Q48.17 12.02 48.04 12.13L48.04 12.13L47.71 11.79ZM56.66 11.66L57.00 12.00L57.00 12.00Q56.37 12.61 55.81 13.03L55.81 13.03L55.81 13.03Q55.25 13.45 54.75 13.70L54.75 13.70L54.75 13.70Q54.24 13.95 53.78 14.06L53.78 14.06L53.78 14.06Q53.32 14.17 52.88 14.17L52.88 14.17L52.88 14.17Q52.70 14.17 52.47 14.03L52.47 14.03L52.47 14.03Q52.25 13.90 52.05 13.70L52.05 13.70L52.05 13.70Q51.86 13.51 51.73 13.30L51.73 13.30L51.73 13.30Q51.60 13.08 51.60 12.93L51.60 12.93L51.60 12.93Q51.60 12.37 51.75 11.90L51.75 11.90L51.75 11.90Q51.91 11.44 52.16 11.06L52.16 11.06L52.16 11.06Q52.41 10.68 52.74 10.40L52.74 10.40L52.74 10.40Q53.06 10.11 53.41 9.92L53.41 9.92L53.41 9.92Q53.76 9.73 54.11 9.63L54.11 9.63L54.11 9.63Q54.46 9.54 54.76 9.54L54.76 9.54L54.76 9.54Q54.97 9.54 55.18 9.66L55.18 9.66L55.18 9.66Q55.38 9.78 55.56 9.96L55.56 9.96L55.56 9.96Q55.73 10.14 55.83 10.33L55.83 10.33L55.83 10.33Q55.94 10.53 55.94 10.67L55.94 10.67L55.94 10.67Q55.94 10.90 55.74 11.15L55.74 11.15L55.74 11.15Q55.55 11.39 55.19 11.64L55.19 11.64L55.19 11.64Q54.84 11.89 54.34 12.16L54.34 12.16L54.34 12.16Q53.84 12.42 53.24 12.69L53.24 12.69L53.24 12.69Q53.22 12.85 53.22 13.01L53.22 13.01L53.22 13.01Q53.22 13.22 53.31 13.30L53.31 13.30L53.31 13.30Q53.40 13.37 53.66 13.37L53.66 13.37L53.66 13.37Q54.11 13.37 54.51 13.22L54.51 13.22L54.51 13.22Q54.91 13.07 55.28 12.83L55.28 12.83L55.28 12.83Q55.64 12.59 55.99 12.28L55.99 12.28L55.99 12.28Q56.33 11.98 56.66 11.66L56.66 11.66ZM54.59 10.29L54.59 10.29L54.59 10.29Q54.46 10.29 54.29 10.44L54.29 10.44L54.29 10.44Q54.13 10.58 53.96 10.82L53.96 10.82L53.96 10.82Q53.80 11.06 53.65 11.37L53.65 11.37L53.65 11.37Q53.50 11.68 53.39 12.02L53.39 12.02L53.39 12.02Q53.64 11.85 53.88 11.67L53.88 11.67L53.88 11.67Q54.13 11.48 54.32 11.28L54.32 11.28L54.32 11.28Q54.51 11.08 54.63 10.87L54.63 10.87L54.63 10.87Q54.74 10.66 54.74 10.45L54.74 10.45L54.74 10.45Q54.74 10.38 54.70 10.34L54.70 10.34L54.70 10.34Q54.67 10.29 54.59 10.29Z"></path></g><!----><!----></svg>